<?xml version="1.0" encoding="UTF-8"?>
<svg version="1.1" xmlns="http://www.w3.org/2000/svg" width="367" height="367">
<path d="M0 0 C1.04172363 0.53463867 1.04172363 0.53463867 2.10449219 1.08007812 C3.3076709 1.68275513 3.3076709 1.68275513 4.53515625 2.29760742 C5.39850586 2.73113525 6.26185547 3.16466309 7.15136719 3.61132812 C43.89191303 21.51379466 86.0386419 31.4453022 126.57714844 35.59179688 C127.67414063 35.76324219 128.77113281 35.9346875 129.90136719 36.11132812 C131.26881433 38.8462224 131.03045779 41.01446688 131.03507996 44.07714844 C131.03934494 45.34966461 131.04360992 46.62218079 131.04800415 47.93325806 C131.04765458 49.35198978 131.04719301 50.77072147 131.04663086 52.18945312 C131.049622 53.67776575 131.05302443 55.1660776 131.05680847 56.65438843 C131.06566833 60.70907241 131.06798773 64.76373531 131.06862426 68.81842804 C131.06933492 71.35769368 131.0714698 73.89695396 131.07412148 76.43621826 C131.08338925 85.31392761 131.08745555 94.19162192 131.08666992 103.06933594 C131.08607232 111.30899521 131.09655767 119.54858832 131.11241359 127.7882309 C131.12557046 134.88149062 131.13085026 141.97472899 131.13021451 149.06800079 C131.12996142 153.29507261 131.13270523 157.52208597 131.14339256 161.74914551 C131.241845 203.58947248 131.241845 203.58947248 126.77636719 219.61132812 C126.45986206 220.77378052 126.45986206 220.77378052 126.13696289 221.9597168 C118.22493605 249.52770599 100.72033079 274.61560374 79.90136719 294.11132812 C79.24136719 294.11132812 78.58136719 294.11132812 77.90136719 294.11132812 C77.57136719 295.10132813 77.24136719 296.09132813 76.90136719 297.11132812 C74.81933594 299.02148438 74.81933594 299.02148438 72.08886719 301.17382812 C71.08339844 301.97433594 70.07792969 302.77484375 69.04199219 303.59960938 C68.51798828 304.01549316 67.99398437 304.43137695 67.45410156 304.85986328 C65.03756971 306.80752716 62.69641013 308.84292893 60.33886719 310.86132812 C46.63046053 322.26446999 31.79051912 332.05992147 16.62646484 341.40380859 C13.92816705 343.0945356 11.28001145 344.84730029 8.63183594 346.61523438 C-2.93565732 354.15098776 -2.93565732 354.15098776 -7.86816406 354.06054688 C-10.65682097 352.75410625 -12.70568541 351.0568984 -15.09863281 349.11132812 C-17.18675098 347.79893361 -19.30968974 346.55615816 -21.43725586 345.30883789 C-30.5505742 339.93519119 -39.38387934 334.10496875 -48.09863281 328.11132812 C-48.67532715 327.71623047 -49.25202148 327.32113281 -49.84619141 326.9140625 C-74.07341042 310.23011681 -98.10910309 290.30230211 -115.09863281 266.11132812 C-115.50629883 265.5533252 -115.91396484 264.99532227 -116.33398438 264.42041016 C-139.24195663 233.04721255 -142.59239772 198.81766285 -142.43574619 161.21158433 C-142.42052021 156.83993114 -142.42188014 152.46827865 -142.42108154 148.09660339 C-142.41741497 140.78188799 -142.4025652 133.46726793 -142.37988281 126.15258789 C-142.35080059 116.75476067 -142.34063619 107.35700907 -142.33620071 97.95914173 C-142.33223135 89.86130844 -142.31974656 81.76349165 -142.30585384 73.66567016 C-142.30175412 71.06601674 -142.29882942 68.4663639 -142.29605865 65.86670876 C-142.2911825 61.80111484 -142.28100803 57.73556731 -142.26662064 53.66999626 C-142.26208496 52.17556298 -142.25925599 50.68112345 -142.25821304 49.18668365 C-142.25647713 47.1562102 -142.24798024 45.1257458 -142.23907471 43.09529114 C-142.23610004 41.95704297 -142.23312538 40.8187948 -142.23006058 39.64605427 C-142.09863281 37.11132812 -142.09863281 37.11132812 -141.09863281 36.11132812 C-139.39181719 35.83542721 -137.67578009 35.61638888 -135.95800781 35.41992188 C-92.96946823 30.18931805 -47.82430653 20.58654825 -9.77050781 -0.80664062 C-6.07573038 -2.30291745 -3.61048474 -1.52886976 0 0 Z M-13.72363281 31.04882812 C-40.42618282 43.02021843 -68.49099776 50.44660665 -97.05566406 56.35742188 C-98.81667738 56.72456975 -100.57762345 57.09204031 -102.33850098 57.45983887 C-106.59111524 58.34737611 -110.84460504 59.23059198 -115.09863281 60.11132812 C-115.19256772 77.49807301 -115.26285053 94.88473737 -115.3058815 112.27167892 C-115.32640313 120.34689629 -115.35432152 128.42195492 -115.40039062 136.49707031 C-115.44058041 143.54507354 -115.46614091 150.59296167 -115.47498679 157.64107633 C-115.48014793 161.36422325 -115.49205349 165.08704126 -115.52155304 168.81008148 C-115.84828141 211.75587834 -103.8500582 242.57041336 -73.85693359 273.33300781 C-59.88043398 287.46864002 -44.06196056 298.57942361 -27.59863281 309.61132812 C-26.9424295 310.0524292 -26.2862262 310.49353027 -25.61013794 310.94799805 C-21.47264001 313.72335807 -17.30144056 316.43587671 -13.09863281 319.11132812 C-12.30368408 319.64556396 -11.50873535 320.1797998 -10.68969727 320.73022461 C-8.1961392 322.24563157 -6.15077473 323.35337781 -3.20751953 322.67626953 C-1.07245846 321.68098194 0.77230388 320.50755915 2.71386719 319.17382812 C3.44033447 318.70944336 4.16680176 318.24505859 4.9152832 317.76660156 C7.26732192 316.24754 9.58382122 314.68240759 11.90136719 313.11132812 C13.46573291 312.08286028 15.03083903 311.05551775 16.59667969 310.02929688 C32.31436855 299.60436537 47.32464971 288.22122437 60.90136719 275.11132812 C61.82175781 274.2425 62.74214844 273.37367188 63.69042969 272.47851562 C88.21533699 248.78261927 103.42706142 218.94169973 104.07579041 184.52520752 C104.15025062 177.3283633 104.13361889 170.13192631 104.10415506 162.93492007 C104.09148855 159.30883985 104.09046486 155.68275481 104.08810425 152.05665588 C104.08193554 145.21836742 104.06558848 138.38014438 104.04540527 131.54188448 C104.02290105 123.74479176 104.01201666 115.94769559 104.0020144 108.15057838 C103.98121707 92.13745733 103.94613275 76.12440123 103.90136719 60.11132812 C103.22232645 59.97088923 102.54328571 59.83045034 101.84366798 59.68575573 C98.72027261 59.03916828 95.59719593 58.39105377 92.47412109 57.74291992 C91.40621841 57.52208488 90.33831573 57.30124985 89.23805237 57.07372284 C80.20582124 55.19743254 71.22525061 53.16302471 62.27636719 50.92382812 C61.52631409 50.73668243 60.77626099 50.54953674 60.003479 50.35671997 C39.13012672 45.11197898 18.53217973 38.82014522 -0.92285156 29.50976562 C-6.12956691 27.21701766 -8.90150718 28.80318 -13.72363281 31.04882812 Z " fill="#20436F" transform="translate(194.0986328125,8.888671875)"/>
<path d="M0 0 C0.69626999 -0.0049649 1.39253998 -0.00992981 2.10990906 -0.01504517 C4.41190582 -0.02964363 6.71383371 -0.03646418 9.01586914 -0.04199219 C10.61625673 -0.04774466 12.21664431 -0.05350238 13.81703186 -0.05926514 C17.17196982 -0.06976791 20.52688386 -0.0756156 23.88183594 -0.07910156 C28.1805402 -0.08459096 32.47892847 -0.10863131 36.77753353 -0.13707352 C40.08294094 -0.15569526 43.38827206 -0.1609052 46.69372749 -0.16243744 C48.27856744 -0.16546454 49.86340603 -0.17349504 51.4481945 -0.18662262 C53.66492691 -0.20367721 55.88088487 -0.201805 58.09765625 -0.1953125 C59.35879745 -0.19895813 60.61993866 -0.20260376 61.91929626 -0.20635986 C65.33195383 0.18626277 66.74323698 0.71296252 69.11352539 3.16113281 C69.61523438 5.84082031 69.61523438 5.84082031 69.60961914 9.03613281 C69.61026367 10.18597656 69.6109082 11.33582031 69.61157227 12.52050781 C69.5915918 13.72191406 69.57161133 14.92332031 69.55102539 16.16113281 C69.55811523 17.36253906 69.56520508 18.56394531 69.57250977 19.80175781 C69.5081833 28.62932776 69.5081833 28.62932776 67.74145508 31.01000977 C65.42909259 32.64510112 63.72146535 32.45754606 60.92602539 32.34863281 C60.0249707 32.3215625 59.12391602 32.29449219 58.19555664 32.26660156 C57.50848633 32.23179688 56.82141602 32.19699219 56.11352539 32.16113281 C56.17361931 34.91343429 56.2606516 37.66037722 56.36352539 40.41113281 C56.37770508 41.1884375 56.39188477 41.96574219 56.40649414 42.76660156 C56.56396719 46.4514709 56.65537976 48.54188102 58.89086914 51.56347656 C61.0196825 53.09367808 63.07242431 54.32400528 65.42602539 55.47363281 C72.4408731 59.26419303 76.71133582 63.34984547 79.47282791 70.93358231 C80.50068399 74.50718982 80.5320096 77.9243045 80.50170898 81.62158203 C80.50696594 82.42598724 80.5122229 83.23039246 80.51763916 84.05917358 C80.53074688 86.69492529 80.52213245 89.3300634 80.51196289 91.96582031 C80.51398668 93.81373204 80.51690065 95.66164299 80.5206604 97.509552 C80.52507161 101.37444698 80.51869304 105.23913328 80.50463867 109.10400391 C80.4875716 114.03537103 80.49737993 118.96624733 80.51535606 123.89759636 C80.52624704 127.71196118 80.52272288 131.52621154 80.51497269 135.34057999 C80.51298409 137.1576862 80.51538236 138.97480311 80.52241135 140.79189682 C80.5668505 155.51067861 79.39925815 167.944058 69.09790039 179.40332031 C61.66076736 186.51160052 52.86810217 191.84505142 44.11352539 197.16113281 C43.47850098 197.55204102 42.84347656 197.94294922 42.18920898 198.34570312 C32.62935693 204.16653364 32.62935693 204.16653364 27.82446289 204.14941406 C22.98540566 202.86069672 19.13131231 200.67273132 14.86352539 198.09863281 C14.02523193 197.60202148 13.18693848 197.10541016 12.32324219 196.59375 C5.97263387 192.78596282 -0.08571246 188.77402558 -5.88647461 184.16113281 C-6.98862305 183.32195312 -6.98862305 183.32195312 -8.11303711 182.46582031 C-16.43684182 175.76313113 -21.90686844 166.09513286 -23.22050476 155.45576477 C-23.93839148 146.3599507 -23.99788763 137.3186871 -23.90600586 128.20410156 C-23.89904882 127.42063166 -23.89209179 126.63716175 -23.88492393 125.82995033 C-23.84787075 121.69684574 -23.80404459 117.56387996 -23.75439453 113.4309082 C-23.70475516 109.1868437 -23.67875472 104.94296982 -23.65796375 100.69867992 C-23.63754551 97.40667146 -23.59966182 94.11502626 -23.55710411 90.82323647 C-23.53986735 89.25852542 -23.52909286 87.69372826 -23.52515602 86.12892723 C-23.48981584 75.28259609 -22.6537909 67.38535006 -14.88647461 59.16113281 C-10.99844542 56.24511092 -6.91737497 54.11632879 -2.52319336 52.09082031 C-0.70272525 51.25766746 -0.70272525 51.25766746 0.11352539 49.16113281 C0.34626748 46.28202694 0.53325296 43.41966786 0.67602539 40.53613281 C0.71920898 39.73433594 0.76239258 38.93253906 0.80688477 38.10644531 C0.91303996 36.12488171 1.01379394 34.14303011 1.11352539 32.16113281 C0.08291992 32.21333984 0.08291992 32.21333984 -0.96850586 32.26660156 C-1.86956055 32.29367188 -2.77061523 32.32074219 -3.69897461 32.34863281 C-5.03895508 32.40083984 -5.03895508 32.40083984 -6.40600586 32.45410156 C-8.88647461 32.16113281 -8.88647461 32.16113281 -10.50292969 30.96459961 C-13.30543348 27.31150353 -12.60875105 22.22602497 -12.76147461 17.78613281 C-12.85041992 16.22378906 -12.85041992 16.22378906 -12.94116211 14.62988281 C-13.11846643 10.29700839 -13.24928054 7.0409915 -11.58178711 2.99707031 C-8.32524313 -0.52960173 -4.52146942 0.02449535 0 0 Z M-3.88647461 90.16113281 C-3.95620964 98.23711368 -4.00940442 106.31296719 -4.04191113 114.38917542 C-4.05751849 118.13993013 -4.07866554 121.89047773 -4.11279297 125.64111328 C-4.14556384 129.2656455 -4.16336464 132.88997942 -4.17110634 136.51464844 C-4.17661825 137.89244708 -4.18738121 139.27023577 -4.20366478 140.64794922 C-4.33805604 152.4975978 -2.9895315 159.82485071 5.31274414 168.62988281 C10.40969449 173.23633167 16.12349672 176.82500067 22.11352539 180.16113281 C22.98738892 180.66471313 22.98738892 180.66471313 23.87890625 181.1784668 C27.16600447 182.87302964 28.71122898 183.28236605 32.28930664 182.20410156 C50.21124463 171.74223734 50.21124463 171.74223734 60.51806641 154.5234375 C61.73514423 147.65111449 61.47519982 140.66001414 61.39477539 133.70141602 C61.36348091 130.96975024 61.35377898 128.23866377 61.34790039 125.50683594 C61.33873311 123.75227167 61.32835821 121.99771321 61.31665039 120.24316406 C61.31240051 119.43571243 61.30815063 118.6282608 61.30377197 117.79634094 C61.24575028 113.15810252 60.87413871 108.73815012 60.11352539 104.16113281 C52.06484109 102.33323648 44.01563924 100.50764405 35.96576118 98.68501282 C32.22813538 97.83867329 28.49069478 96.99153313 24.75366211 96.14257812 C21.14905257 95.32373685 17.54397678 94.50697925 13.9385643 93.69168091 C12.56124843 93.37983792 11.18410395 93.06723702 9.80713272 92.75387573 C7.88253421 92.31602377 5.9572736 91.88108515 4.03198242 91.44628906 C2.93500031 91.19758057 1.83801819 90.94887207 0.70779419 90.69262695 C-1.77166637 90.09423159 -1.77166637 90.09423159 -3.88647461 90.16113281 Z " fill="#1F416D" transform="translate(159.886474609375,85.8388671875)"/>
<path d="M0 0 C1.32 0.33 2.64 0.66 4 1 C0.535 3.97 0.535 3.97 -3 7 C-2.25 2.25 -2.25 2.25 0 0 Z " fill="#3B5A7F" transform="translate(145,145)"/>
<path d="M0 0 C-0.93972656 0.19916016 -0.93972656 0.19916016 -1.8984375 0.40234375 C-3.12433594 0.66724609 -3.12433594 0.66724609 -4.375 0.9375 C-5.18710938 1.11152344 -5.99921875 1.28554688 -6.8359375 1.46484375 C-9.029463 1.92330693 -9.029463 1.92330693 -11 3 C-13.00800456 2.71887936 -15.01014051 2.38932033 -17 2 C-17 1.67 -17 1.34 -17 1 C-14.91835982 0.63601378 -12.83459438 0.28416713 -10.75 -0.0625 C-9.00976562 -0.35833984 -9.00976562 -0.35833984 -7.234375 -0.66015625 C-4.37477376 -0.9606216 -2.66674071 -0.9439206 0 0 Z " fill="#7990AA" transform="translate(86,42)"/>
<path d="M0 0 C0.33 1.32 0.66 2.64 1 4 C-0.4375 6.25 -0.4375 6.25 -2 8 C-2.99 7.67 -3.98 7.34 -5 7 C-3.35 4.69 -1.7 2.38 0 0 Z " fill="#466388" transform="translate(276,259)"/>
</svg>
